HIERARCHY
ROOT Hips
{
	OFFSET -3.958830 18.904000 13.208200
	CHANNELS 6 Xposition Yposition Zposition Zrotation Yrotation Xrotation 
	JOINT LHipJoint
	{
		OFFSET 0.000000 0.000000 0.000000
		CHANNELS 3 Zrotation Yrotation Xrotation
		JOINT LeftUpLeg
		{
			OFFSET 1.800000 -1.400000 0.085000
			CHANNELS 3 Zrotation Yrotation Xrotation
			JOINT LeftLeg
			{
				OFFSET 2.215000 -6.000000 0.000000
				CHANNELS 3 Zrotation Yrotation Xrotation
				JOINT LeftFoot
				{
					OFFSET 2.500000 -6.900000 0.000000
					CHANNELS 3 Zrotation Yrotation Xrotation
					JOINT LeftToeBase
					{
						OFFSET 0.200000 -0.500000 1.950000
						CHANNELS 3 Zrotation Yrotation Xrotation
						End Site
						{
							OFFSET 0.000000 0.000000 0.000000
						}
					}
				}
			}
		}
	}
	JOINT RHipJoint
	{
		OFFSET 0.000000 0.000000 0.000000
		CHANNELS 3 Zrotation Yrotation Xrotation
		JOINT RightUpLeg
		{
			OFFSET -1.800000 -1.400000 0.085000
			CHANNELS 3 Zrotation Yrotation Xrotation
			JOINT RightLeg
			{
				OFFSET -2.215000 -6.000000 0.000000
				CHANNELS 3 Zrotation Yrotation Xrotation
				JOINT RightFoot
				{
					OFFSET -2.500000 -6.900000 0.000000
					CHANNELS 3 Zrotation Yrotation Xrotation
					JOINT RightToeBase
					{
						OFFSET -0.200000 -0.500000 1.950000
						CHANNELS 3 Zrotation Yrotation Xrotation
						End Site
						{
							OFFSET 0.000000 0.000000 0.000000
						}
					}
				}
			}
		}
	}
	JOINT LowerBack
	{
		OFFSET 0.000000 0.000000 0.000000
		CHANNELS 3 Zrotation Yrotation Xrotation
		JOINT Spine
		{
			OFFSET -0.087000 1.940000 -0.288900
			CHANNELS 3 Zrotation Yrotation Xrotation
			JOINT Spine1
			{
				OFFSET 0.000000 1.950000 0.060000
				CHANNELS 3 Zrotation Yrotation Xrotation
				JOINT Neck
				{
					OFFSET 0.000000 0.000000 0.000000
					CHANNELS 3 Zrotation Yrotation Xrotation
					JOINT Neck1
					{
						OFFSET 0.000000 1.600000 0.340000
						CHANNELS 3 Zrotation Yrotation Xrotation
						JOINT Head
						{
							OFFSET 0.000000 1.667000 -0.240000
							CHANNELS 3 Zrotation Yrotation Xrotation
							End Site
							{
								OFFSET 0.000000 0.000000 0.000000
							}
						}
					}
				}
				JOINT LeftShoulder
				{
					OFFSET 0.000000 0.000000 0.000000
					CHANNELS 3 Zrotation Yrotation Xrotation
					JOINT LeftArm
					{
						OFFSET 2.700000 1.550000 -0.730000
						CHANNELS 3 Zrotation Yrotation Xrotation
						JOINT LeftForeArm
						{
							OFFSET 5.450000 0.000000 0.000000
							CHANNELS 3 Zrotation Yrotation Xrotation
							JOINT LeftHand
							{
								OFFSET 3.450000 0.000000 0.000000
								CHANNELS 3 Zrotation Yrotation Xrotation
								JOINT LeftHandIndex1
								{
									OFFSET 0.750000 0.000000 0.000000
									CHANNELS 3 Zrotation Yrotation Xrotation
									End Site
									{
										OFFSET 0.000000 0.000000 0.000000
									}
								}
							}
						}
					}
				}
				JOINT RightShoulder
				{
					OFFSET 0.000000 0.000000 0.000000
					CHANNELS 3 Zrotation Yrotation Xrotation
					JOINT RightArm
					{
						OFFSET -2.700000 1.550000 -0.730000
						CHANNELS 3 Zrotation Yrotation Xrotation
						JOINT RightForeArm
						{
							OFFSET -5.450000 0.000000 0.000000
							CHANNELS 3 Zrotation Yrotation Xrotation
							JOINT RightHand
							{
								OFFSET -3.450000 0.000000 0.000000
								CHANNELS 3 Zrotation Yrotation Xrotation
								JOINT RightHandIndex1
								{
									OFFSET -0.750000 0.000000 0.000000
									CHANNELS 3 Zrotation Yrotation Xrotation
									End Site
									{
										OFFSET 0.000000 0.000000 0.000000
									}
								}
							}
						}
					}
				}
			}
		}
	}
}
MOTION
Frames: 9
Frame Time: 0.016667
0.241620 16.935880 -0.287160 -3.325872 4.144900 -0.697078 -15.310471 12.567766 3.320902 -1.574119 1.519154 6.433636 -4.335940 4.107520 -3.261754 0.261858 4.320326 3.154842 0.099980 0.106800 0.004230 18.406296 -10.069065 3.428865 6.858515 -0.504822 -3.303382 4.578488 -3.015539 -3.454676 -0.404773 -3.310014 3.179076 0.055200 0.161830 0.122800 -3.626799 -1.693730 -8.064067 7.831448 -0.697329 3.911215 -2.061979 -0.681453 21.824779 2.294961 -2.941692 -20.759520 -8.726856 3.380672 43.191846 0.632150 0.457570 -4.006960 -24.192870 -36.632722 13.562722 -37.699193 -8.361826 -3.833777 -27.047712 -25.827726 2.605957 -3.486638 3.162950 0.174150 0.029930 0.078720 0.077920 20.897284 39.684956 16.834429 38.129765 7.263070 -5.331368 20.176916 25.247854 1.361359 2.289524 -1.311309 -0.034400 0.171900 0.078470 0.039670 
0.243900 16.934510 -0.285510 -3.373809 4.281973 -0.623636 -15.304206 12.549442 3.317166 -1.498297 1.504001 6.425440 -4.445759 4.103108 -3.408836 0.264540 4.333134 3.155614 0.093830 0.099830 -0.005680 18.416529 -10.067986 3.426306 6.907980 -0.498153 -3.329287 4.548204 -3.005254 -3.506784 -0.399052 -3.317115 3.180166 0.053910 0.173280 0.122630 -3.651441 -1.667796 -8.053265 7.945284 -0.703947 3.829954 -2.088518 -0.693627 21.793113 2.238938 -2.933894 -20.662367 -8.651610 3.294015 42.930643 0.723740 0.321710 -3.787120 -24.136132 -36.568010 13.520563 -37.746774 -8.417502 -3.816053 -27.215141 -25.825678 2.636756 -3.496169 3.166408 0.166750 0.037510 0.068720 0.080610 20.928102 39.574553 16.798205 38.143011 7.231636 -5.327774 20.333907 25.223136 1.366717 2.288877 -1.316845 -0.037480 0.173070 0.082100 0.043260 
0.247590 16.933390 -0.285470 -3.482082 4.343535 -0.558163 -15.288440 12.529221 3.309613 -1.427084 1.482330 6.394254 -4.451882 4.087736 -3.530529 0.269378 4.338177 3.163403 0.086320 0.091980 -0.018100 18.435348 -10.074502 3.424573 6.963863 -0.487022 -3.390566 4.589628 -3.003384 -3.502529 -0.392228 -3.324256 3.184617 0.051270 0.190660 0.122310 -3.702006 -1.626576 -8.039823 8.241776 -0.697595 3.759556 -2.197250 -0.683468 21.770724 2.184655 -2.927379 -20.575298 -8.580154 3.228349 42.646629 0.858990 0.182020 -3.453340 -24.092088 -36.546013 13.490774 -37.792770 -8.497348 -3.792350 -27.352160 -25.814440 2.664427 -3.507242 3.168813 0.155960 0.048150 0.056900 0.087260 20.949561 39.489730 16.771873 38.194774 7.197231 -5.327263 20.399791 25.200681 1.357273 2.287883 -1.322892 -0.040630 0.177310 0.084410 0.049960 
0.251700 16.932010 -0.284650 -3.525868 4.383432 -0.512586 -15.277605 12.512088 3.304334 -1.442871 1.479448 6.401789 -4.378929 4.068097 -3.614634 0.275553 4.338054 3.170394 0.081260 0.088860 -0.032890 18.448797 -10.083110 3.417869 6.922292 -0.479926 -3.445448 4.699644 -3.015315 -3.441287 -0.387249 -3.335785 3.187180 0.049410 0.207350 0.125510 -3.737704 -1.588977 -8.022265 8.423310 -0.672176 3.680733 -2.245739 -0.663358 21.762216 2.119935 -2.920185 -20.478167 -8.514283 3.165299 42.427799 1.032220 0.016080 -3.171500 -23.985985 -36.511266 13.448775 -37.926312 -8.641779 -3.733685 -27.376084 -25.733071 2.664233 -3.518836 3.173803 0.144850 0.058480 0.047690 0.095680 20.945248 39.401388 16.740085 38.245395 7.189760 -5.289001 20.512606 25.072124 1.345215 2.288003 -1.329047 -0.039620 0.179130 0.086530 0.059230 
0.254750 16.931790 -0.285700 -3.573342 4.328076 -0.498939 -15.269163 12.502529 3.302166 -1.455031 1.478611 6.392888 -4.334526 4.058848 -3.643936 0.280814 4.332796 3.177669 0.079430 0.088860 -0.037980 18.457226 -10.093355 3.415776 6.901539 -0.473053 -3.501671 4.801565 -3.025949 -3.363587 -0.383863 -3.339577 3.189982 0.048500 0.214650 0.124980 -3.762035 -1.558704 -8.017262 8.573262 -0.641686 3.678732 -2.248544 -0.646363 21.830195 2.101702 -2.939668 -20.488677 -8.512920 3.103989 42.272574 1.002740 -0.050450 -2.992500 -23.943863 -36.581172 13.457486 -37.967924 -8.682774 -3.758040 -27.360794 -25.749777 2.659616 -3.522385 3.176021 0.136630 0.063770 0.042290 0.099840 20.936838 39.472842 16.773548 38.203559 7.156322 -5.287266 20.526073 25.013295 1.325722 2.286892 -1.333945 -0.038240 0.180370 0.085230 0.063770 
0.258460 16.931910 -0.286950 -3.695268 4.311089 -0.485244 -15.253434 12.487523 3.292981 -1.375775 1.465328 6.353379 -4.374694 4.061578 -3.650674 0.288370 4.329884 3.180762 0.075030 0.090040 -0.042850 18.474229 -10.104783 3.415405 6.979439 -0.465338 -3.566149 4.862408 -3.031571 -3.279386 -0.379403 -3.341786 3.188286 0.049190 0.219700 0.126390 -3.809371 -1.513772 -8.005013 8.890674 -0.652012 3.669610 -2.377214 -0.662499 21.883903 2.119689 -2.911453 -20.419135 -8.381288 3.059147 41.970461 0.892280 0.003300 -2.846120 -23.952590 -36.595353 13.458904 -37.932073 -8.700926 -3.786465 -27.423542 -25.751648 2.672794 -3.528672 3.182913 0.123140 0.070010 0.039210 0.101420 20.871256 39.450035 16.726220 38.236940 7.243908 -5.241085 20.472505 24.922495 1.300056 2.292729 -1.339088 -0.035060 0.178290 0.084080 0.069930 
0.259930 16.932380 -0.288400 -3.710559 4.182122 -0.463692 -15.247047 12.485714 3.295224 -1.421057 1.468610 6.317804 -4.373141 4.057471 -3.645518 0.289922 4.321798 3.185583 0.076660 0.094080 -0.045540 18.478979 -10.115030 3.412848 6.987191 -0.457414 -3.649882 4.855418 -3.037208 -3.158941 -0.377017 -3.333919 3.194334 0.050450 0.223450 0.125470 -3.824549 -1.497283 -8.005728 8.968848 -0.617919 3.715316 -2.409453 -0.611322 21.833970 2.092091 -2.918588 -20.399897 -8.369421 3.098147 41.907517 1.015740 0.006400 -2.845410 -24.064781 -36.559866 13.433878 -37.799885 -8.630893 -3.794900 -27.621352 -25.699531 2.700367 -3.528783 3.184339 0.120860 0.071290 0.038560 0.105830 21.029607 39.414867 16.715362 38.184956 7.218622 -5.230706 20.476663 24.864677 1.296678 2.291563 -1.340438 -0.034160 0.181020 0.081930 0.073040 
0.262230 16.931330 -0.288960 -3.765294 4.066483 -0.419102 -15.240602 12.478189 3.293843 -1.493932 1.461983 6.291423 -4.225865 4.029027 -3.695474 0.285527 4.311115 3.191654 0.078590 0.095690 -0.048150 18.486529 -10.118654 3.412476 7.020091 -0.447354 -3.704057 4.873725 -3.036108 -3.147931 -0.375384 -3.333222 3.198441 0.052960 0.228070 0.124950 -3.843786 -1.480264 -7.999719 9.082215 -0.604572 3.702111 -2.460316 -0.592019 21.748691 2.069931 -2.911286 -20.316142 -8.316060 3.133412 41.759990 1.101310 0.030420 -2.833800 -24.146168 -36.468543 13.386622 -37.749387 -8.616554 -3.751483 -27.810718 -25.557319 2.712340 -3.532378 3.185923 0.120210 0.074200 0.035420 0.110550 21.133862 39.300281 16.655980 38.202412 7.241891 -5.208753 20.542623 24.812161 1.301237 2.288899 -1.343569 -0.036280 0.183450 0.080860 0.073460 
0.262560 16.929670 -0.290330 -3.778239 3.950862 -0.380095 -15.245719 12.477725 3.293130 -1.554469 1.458028 6.256724 -4.116222 4.010226 -3.704873 0.283391 4.302782 3.194762 0.077250 0.095080 -0.046930 18.482019 -10.119496 3.410960 7.056411 -0.432984 -3.774713 4.842462 -3.031879 -3.117253 -0.372192 -3.327663 3.199416 0.053250 0.229600 0.126990 -3.828484 -1.475039 -7.994402 8.974270 -0.566050 3.696639 -2.368453 -0.587485 21.660360 2.065923 -2.836093 -20.214434 -8.125161 3.141144 41.670755 0.995450 0.175290 -2.800920 -24.217831 -36.360184 13.335722 -37.711442 -8.642637 -3.690333 -27.974619 -25.395798 2.724024 -3.540107 3.185975 0.117460 0.078090 0.034800 0.109700 21.210425 39.149500 16.564617 38.203656 7.307765 -5.171585 20.667271 24.760787 1.316491 2.291130 -1.345777 -0.036540 0.182170 0.080790 0.073040 
